<svg width="256" height="256" viewBox="0 0 256 256" fill="none" xmlns="http://www.w3.org/2000/svg">
<rect width="256" height="256" fill="white"/>
<path d="M94.2585 140.764C92.6949 140.764 91.3296 140.484 90.1627 139.924C89.0191 139.34 88.0389 138.535 87.222 137.508L90.8978 133.972C91.3179 134.556 91.808 134.999 92.3681 135.303C92.9516 135.606 93.605 135.758 94.3285 135.758C95.0287 135.758 95.6355 135.618 96.1489 135.338C96.6623 135.034 97.0708 134.614 97.3742 134.077C97.6776 133.517 97.8293 132.829 97.8293 132.012V115.664H103.36V131.697C103.36 133.541 102.987 135.139 102.24 136.493C101.493 137.847 100.443 138.897 99.0895 139.644C97.7359 140.39 96.1256 140.764 94.2585 140.764Z" fill="#00113B"/>
<path d="M114.361 140.729C112.797 140.729 111.397 140.344 110.16 139.574C108.946 138.803 107.978 137.753 107.254 136.423C106.554 135.093 106.204 133.576 106.204 131.872C106.204 130.168 106.554 128.651 107.254 127.321C107.978 125.991 108.946 124.941 110.16 124.17C111.397 123.4 112.797 123.015 114.361 123.015C115.504 123.015 116.531 123.237 117.441 123.68C118.375 124.124 119.133 124.742 119.717 125.536C120.3 126.306 120.627 127.193 120.697 128.196V135.548C120.627 136.551 120.3 137.45 119.717 138.243C119.157 139.013 118.41 139.62 117.476 140.064C116.543 140.507 115.504 140.729 114.361 140.729ZM115.446 135.898C116.589 135.898 117.511 135.524 118.211 134.778C118.912 134.007 119.262 133.039 119.262 131.872C119.262 131.078 119.098 130.378 118.772 129.772C118.468 129.165 118.025 128.698 117.441 128.371C116.881 128.021 116.228 127.846 115.481 127.846C114.734 127.846 114.069 128.021 113.485 128.371C112.925 128.698 112.47 129.165 112.12 129.772C111.793 130.378 111.63 131.078 111.63 131.872C111.63 132.642 111.793 133.331 112.12 133.937C112.447 134.544 112.902 135.023 113.485 135.373C114.069 135.723 114.722 135.898 115.446 135.898ZM119.052 140.379V135.793L119.857 131.662L119.052 127.531V123.365H124.303V140.379H119.052Z" fill="#00113B"/>
<path d="M128.074 140.379V114.963H133.43V140.379H128.074Z" fill="#00113B"/>
<path d="M143.398 140.799C142.395 140.799 141.403 140.67 140.422 140.414C139.466 140.157 138.567 139.795 137.727 139.329C136.91 138.838 136.21 138.278 135.626 137.648L138.672 134.568C139.232 135.174 139.897 135.653 140.668 136.003C141.438 136.33 142.278 136.493 143.188 136.493C143.818 136.493 144.297 136.4 144.623 136.213C144.973 136.026 145.148 135.769 145.148 135.443C145.148 135.023 144.938 134.708 144.518 134.498C144.122 134.264 143.608 134.066 142.978 133.902C142.348 133.716 141.683 133.517 140.983 133.307C140.282 133.097 139.617 132.805 138.987 132.432C138.357 132.059 137.844 131.545 137.447 130.892C137.05 130.215 136.852 129.363 136.852 128.336C136.852 127.239 137.132 126.294 137.692 125.501C138.252 124.684 139.046 124.042 140.072 123.575C141.099 123.108 142.301 122.875 143.678 122.875C145.125 122.875 146.455 123.132 147.669 123.645C148.906 124.135 149.909 124.871 150.68 125.851L147.634 128.931C147.097 128.301 146.49 127.858 145.814 127.601C145.16 127.344 144.518 127.216 143.888 127.216C143.281 127.216 142.826 127.309 142.523 127.496C142.22 127.659 142.068 127.904 142.068 128.231C142.068 128.581 142.266 128.861 142.663 129.071C143.06 129.281 143.573 129.468 144.203 129.631C144.833 129.795 145.499 129.993 146.199 130.227C146.899 130.46 147.564 130.775 148.194 131.172C148.824 131.569 149.338 132.105 149.734 132.782C150.131 133.436 150.33 134.299 150.33 135.373C150.33 137.03 149.699 138.348 148.439 139.329C147.202 140.309 145.522 140.799 143.398 140.799Z" fill="#00113B"/>
<path d="M161.637 140.764C159.793 140.764 158.148 140.39 156.701 139.644C155.278 138.873 154.157 137.812 153.34 136.458C152.524 135.104 152.115 133.576 152.115 131.872C152.115 130.168 152.512 128.651 153.305 127.321C154.122 125.967 155.219 124.906 156.596 124.135C157.973 123.365 159.525 122.98 161.252 122.98C162.932 122.98 164.414 123.342 165.698 124.065C166.982 124.789 167.985 125.792 168.709 127.076C169.455 128.36 169.829 129.83 169.829 131.487C169.829 131.79 169.806 132.117 169.759 132.467C169.736 132.794 169.677 133.179 169.584 133.622L154.916 133.657V129.982L167.308 129.947L164.998 131.487C164.975 130.507 164.823 129.702 164.543 129.071C164.263 128.418 163.843 127.928 163.283 127.601C162.746 127.251 162.081 127.076 161.287 127.076C160.447 127.076 159.712 127.274 159.082 127.671C158.475 128.045 157.996 128.581 157.646 129.281C157.32 129.982 157.156 130.833 157.156 131.837C157.156 132.841 157.331 133.704 157.681 134.427C158.055 135.128 158.568 135.676 159.222 136.073C159.898 136.446 160.692 136.633 161.602 136.633C162.442 136.633 163.201 136.493 163.878 136.213C164.554 135.909 165.15 135.466 165.663 134.883L168.604 137.823C167.763 138.803 166.748 139.539 165.558 140.029C164.368 140.519 163.061 140.764 161.637 140.764Z" fill="#00113B"/>
<path d="M174.454 140.379V116.329H179.81V140.379H174.454ZM170.603 127.916V123.365H183.661V127.916H170.603Z" fill="#00113B"/>
<path d="M193.582 140.764C192.019 140.764 190.63 140.449 189.416 139.819C188.226 139.165 187.293 138.278 186.616 137.158C185.939 136.014 185.601 134.708 185.601 133.237V123.365H190.957V133.167C190.957 133.751 191.05 134.252 191.237 134.673C191.447 135.093 191.75 135.419 192.147 135.653C192.544 135.886 193.022 136.003 193.582 136.003C194.376 136.003 195.006 135.758 195.473 135.268C195.939 134.754 196.173 134.054 196.173 133.167V123.365H201.529V133.202C201.529 134.696 201.19 136.014 200.514 137.158C199.837 138.278 198.903 139.165 197.713 139.819C196.523 140.449 195.146 140.764 193.582 140.764Z" fill="#00113B"/>
<path d="M67.6792 112C59.2317 119.211 55 125.44 55 130.702C55 138.595 61.0226 143.698 67.6792 143.698C74.3358 143.698 80.3584 138.595 80.3584 130.702C80.3584 125.44 76.1267 119.211 67.6792 112ZM61.0702 131.019C61.6566 131.019 62.1321 131.431 62.243 132.001C62.8928 135.52 65.8566 136.724 68.012 136.55C68.6935 136.518 69.2641 137.057 69.2641 137.739C69.2641 138.373 68.7569 138.896 68.123 138.927C64.7471 139.134 60.8007 137.2 59.8973 132.398C59.8698 132.228 59.8795 132.054 59.9258 131.888C59.972 131.722 60.0537 131.568 60.1653 131.437C60.2768 131.306 60.4155 131.201 60.5717 131.129C60.728 131.056 60.898 131.019 61.0702 131.019Z" fill="#00113B"/>
</svg>
