<?xml version="1.0" standalone="no"?>
<!DOCTYPE svg PUBLIC "-//W3C//DTD SVG 20010904//EN"
 "http://www.w3.org/TR/2001/REC-SVG-20010904/DTD/svg10.dtd">
<svg version="1.0" xmlns="http://www.w3.org/2000/svg"
 width="1024.000000pt" height="1024.000000pt" viewBox="0 0 1024.000000 1024.000000"
 preserveAspectRatio="xMidYMid meet">

<g transform="translate(0.000000,1024.000000) scale(0.100000,-0.100000)"
fill="#000000" stroke="none">
<path d="M2558 5618 c-166 -165 -231 -247 -293 -373 -58 -117 -74 -203 -57
-316 33 -227 204 -398 429 -430 252 -36 494 124 558 366 20 76 19 207 -1 276
-43 149 -174 328 -379 519 -126 117 -92 123 -257 -42z m-91 -626 c6 -4 21 -32
32 -63 34 -91 112 -149 200 -149 64 0 93 -47 51 -85 -16 -14 -30 -17 -74 -11
-137 16 -232 94 -269 222 -14 46 -14 54 -1 73 15 21 40 27 61 13z"/>
<path d="M5120 5135 l0 -505 110 0 110 0 0 505 0 505 -110 0 -110 0 0 -505z"/>
<path d="M3910 5258 c0 -332 -1 -355 -20 -385 -46 -76 -160 -85 -230 -18 l-26
25 -73 -74 -73 -73 42 -36 c78 -66 122 -81 240 -82 95 0 111 3 167 29 72 33
134 94 166 164 21 45 22 62 25 425 l3 377 -111 0 -110 0 0 -352z"/>
<path d="M6978 5448 l-3 -143 -78 -3 -78 -3 3 -87 3 -87 78 -3 77 -3 0 -244 0
-245 105 0 105 0 0 245 0 244 78 3 77 3 3 87 3 87 -78 3 -78 3 -3 143 -3 142
-104 0 -104 0 -3 -142z"/>
<path d="M4485 5306 c-93 -29 -154 -83 -202 -176 -25 -50 -28 -65 -28 -160 0
-95 3 -111 29 -167 33 -72 95 -134 164 -166 36 -16 67 -22 127 -22 69 0 87 4
129 28 58 32 56 32 56 7 0 -19 7 -20 105 -20 l105 0 0 335 0 335 -105 0 c-105
0 -105 0 -105 -25 l0 -24 -36 24 c-66 45 -157 57 -239 31z m218 -204 c35 -21
67 -87 67 -137 0 -53 -33 -116 -72 -140 -40 -23 -112 -24 -155 -2 -17 9 -41
33 -53 53 -39 62 -26 171 24 213 49 41 132 46 189 13z"/>
<path d="M5640 5311 c-65 -20 -122 -66 -150 -120 -18 -35 -16 -141 4 -179 23
-44 73 -79 147 -103 124 -40 149 -51 160 -72 10 -17 8 -24 -11 -39 -43 -35
-165 -13 -223 39 -17 16 -21 13 -78 -43 l-60 -59 41 -37 c68 -61 136 -82 265
-82 104 -1 113 1 164 29 75 42 111 98 111 177 0 127 -55 180 -242 233 -55 16
-88 36 -88 55 0 5 8 16 17 25 27 27 121 16 173 -20 l41 -29 56 56 c35 36 54
62 50 71 -9 25 -72 67 -131 87 -58 21 -194 26 -246 11z"/>
<path d="M6345 5307 c-102 -34 -180 -99 -226 -187 -21 -39 -24 -59 -24 -155 0
-100 2 -115 27 -160 34 -65 104 -129 176 -163 50 -24 69 -27 162 -27 94 0 111
3 165 28 33 16 72 40 88 55 l27 26 -56 57 -56 57 -48 -30 c-90 -56 -214 -37
-261 39 -12 19 -19 36 -17 38 2 3 114 8 247 11 l243 7 -4 91 c-4 74 -9 101
-31 143 -59 115 -157 175 -292 180 -48 2 -96 -2 -120 -10z m172 -166 c38 -18
73 -61 73 -91 0 -6 -50 -10 -145 -10 -167 0 -174 5 -105 71 55 52 108 61 177
30z"/>
<path d="M7422 5068 c4 -231 4 -233 32 -291 31 -64 99 -126 163 -149 21 -7 79
-13 128 -13 114 0 175 25 240 97 68 75 75 112 75 370 l0 218 -104 0 -105 0 -3
-217 c-3 -237 -7 -252 -60 -274 -41 -17 -99 -4 -125 26 -22 25 -23 32 -23 246
l0 219 -111 0 -111 0 4 -232z"/>
</g>
</svg>
